<svg xmlns="http://www.w3.org/2000/svg" width="860" height="392" viewBox="0 0 860 392" font-family="'JetBrains Mono','Fira Code',ui-monospace,monospace">
  <style>
    .sk { opacity:0; animation: grow .45s ease forwards; }
    @keyframes grow { from { opacity:0; } to { opacity:1; } }
  </style>
  <rect x="0.5" y="0.5" width="859" height="391" rx="10" fill="#000000" stroke="#003300"/>
  <rect x="0.5" y="0.5" width="859" height="30" rx="10" fill="#001100"/>
  <rect x="0.5" y="20" width="859" height="10" fill="#001100"/>
  <circle cx="30" cy="15.0" r="5" fill="#ff5f56"/><circle cx="46" cy="15.0" r="5" fill="#ffbd2e"/><circle cx="62" cy="15.0" r="5" fill="#27c93f"/>
  <text x="430.0" y="19.0" fill="#006600" font-size="11" text-anchor="middle">~/skills</text>
  <text x="22" y="20" font-size="12" font-weight="600"><tspan fill="#39ff14">neel@github</tspan><tspan fill="#006600"> ~ $ </tspan><tspan fill="#00cc00">cat skills.txt</tspan></text>
  <line x1="430" y1="40" x2="430" y2="370" stroke="#002800" stroke-width="1" stroke-dasharray="4,4"/>
  <text x="22" y="68" font-size="12" fill="#006600" font-weight="700"># Data Engineering</text><g class="sk" style="animation-delay:0.15s"><text x="22" y="92" font-size="13" fill="#00cc00">Python</text><rect x="177" y="83" width="170" height="9" rx="2" fill="#002800"/><rect x="177" y="83" width="149" height="9" rx="2" fill="#39ff14"/><text x="353" y="92" font-size="11" fill="#006600">88%</text></g><g class="sk" style="animation-delay:0.24s"><text x="22" y="118" font-size="13" fill="#00cc00">SQL</text><rect x="177" y="109" width="170" height="9" rx="2" fill="#002800"/><rect x="177" y="109" width="144" height="9" rx="2" fill="#39ff14"/><text x="353" y="118" font-size="11" fill="#006600">85%</text></g><g class="sk" style="animation-delay:0.33s"><text x="22" y="144" font-size="13" fill="#00cc00">Apache Airflow</text><rect x="177" y="135" width="170" height="9" rx="2" fill="#002800"/><rect x="177" y="135" width="110" height="9" rx="2" fill="#39ff14"/><text x="353" y="144" font-size="11" fill="#006600">65%</text></g><g class="sk" style="animation-delay:0.42s"><text x="22" y="170" font-size="13" fill="#00cc00">Apache Spark</text><rect x="177" y="161" width="170" height="9" rx="2" fill="#002800"/><rect x="177" y="161" width="102" height="9" rx="2" fill="#39ff14"/><text x="353" y="170" font-size="11" fill="#006600">60%</text></g><g class="sk" style="animation-delay:0.51s"><text x="22" y="196" font-size="13" fill="#00cc00">dbt</text><rect x="177" y="187" width="170" height="9" rx="2" fill="#002800"/><rect x="177" y="187" width="93" height="9" rx="2" fill="#39ff14"/><text x="353" y="196" font-size="11" fill="#006600">55%</text></g><text x="22" y="232" font-size="12" fill="#006600" font-weight="700"># Analytics &amp; Viz</text><g class="sk" style="animation-delay:0.15s"><text x="22" y="256" font-size="13" fill="#00cc00">Pandas / NumPy</text><rect x="177" y="247" width="170" height="9" rx="2" fill="#002800"/><rect x="177" y="247" width="153" height="9" rx="2" fill="#39ff14"/><text x="353" y="256" font-size="11" fill="#006600">90%</text></g><g class="sk" style="animation-delay:0.24s"><text x="22" y="282" font-size="13" fill="#00cc00">Tableau</text><rect x="177" y="273" width="170" height="9" rx="2" fill="#002800"/><rect x="177" y="273" width="127" height="9" rx="2" fill="#39ff14"/><text x="353" y="282" font-size="11" fill="#006600">75%</text></g><g class="sk" style="animation-delay:0.33s"><text x="22" y="308" font-size="13" fill="#00cc00">Power BI</text><rect x="177" y="299" width="170" height="9" rx="2" fill="#002800"/><rect x="177" y="299" width="110" height="9" rx="2" fill="#39ff14"/><text x="353" y="308" font-size="11" fill="#006600">65%</text></g><g class="sk" style="animation-delay:0.42s"><text x="22" y="334" font-size="13" fill="#00cc00">Matplotlib</text><rect x="177" y="325" width="170" height="9" rx="2" fill="#002800"/><rect x="177" y="325" width="119" height="9" rx="2" fill="#39ff14"/><text x="353" y="334" font-size="11" fill="#006600">70%</text></g>
  <text x="452" y="68" font-size="12" fill="#006600" font-weight="700"># Machine Learning</text><g class="sk" style="animation-delay:0.15s"><text x="452" y="92" font-size="13" fill="#00cc00">PyTorch</text><rect x="607" y="83" width="170" height="9" rx="2" fill="#002800"/><rect x="607" y="83" width="119" height="9" rx="2" fill="#39ff14"/><text x="783" y="92" font-size="11" fill="#006600">70%</text></g><g class="sk" style="animation-delay:0.24s"><text x="452" y="118" font-size="13" fill="#00cc00">scikit-learn</text><rect x="607" y="109" width="170" height="9" rx="2" fill="#002800"/><rect x="607" y="109" width="127" height="9" rx="2" fill="#39ff14"/><text x="783" y="118" font-size="11" fill="#006600">75%</text></g><g class="sk" style="animation-delay:0.33s"><text x="452" y="144" font-size="13" fill="#00cc00">FastAPI</text><rect x="607" y="135" width="170" height="9" rx="2" fill="#002800"/><rect x="607" y="135" width="122" height="9" rx="2" fill="#39ff14"/><text x="783" y="144" font-size="11" fill="#006600">72%</text></g><g class="sk" style="animation-delay:0.42s"><text x="452" y="170" font-size="13" fill="#00cc00">Computer Vision</text><rect x="607" y="161" width="170" height="9" rx="2" fill="#002800"/><rect x="607" y="161" width="102" height="9" rx="2" fill="#39ff14"/><text x="783" y="170" font-size="11" fill="#006600">60%</text></g>
</svg>